<?xml version="1.0" encoding="UTF-8"?>
<svg id="katman_1" data-name="katman 1" xmlns="http://www.w3.org/2000/svg" version="1.1" viewBox="0 0 598.8 913.5">
  <defs>
    <style>
      .cls-1 {
        fill: #1e1d1e;
      }

      .cls-1, .cls-2 {
        stroke-width: 0px;
      }

      .cls-2 {
        fill: #fefefe;
      }
    </style>
  </defs>
  <path class="cls-1" d="M406.7,777.9h115.8c0,0,21,0,21,0,1.6,0,5.2-.6,6.6,0,2.1.7,41.3,36.1,46.7,40.7h-28c0,0-189.7,0-189.7,0l24-37.5c1.2-1.8,1.4-2.7,3.6-3.1Z"/>
  <path class="cls-1" d="M50.2,778h143.5c2.9,3,5.4,8.4,7.6,11.9l18.5,28.7h-49.1s-170.6,0-170.6,0l50-40.7Z"/>
  <path class="cls-1" d="M1.2,94.6h221.4c0-.1-15.2,24.7-15.2,24.7l-9.9,16.3h-126.4s-19.7,0-19.7,0c-1.2,0-4.6.4-5.5,0-.6-.3-1.8-1.6-2.3-2.1l-6-5.4L1.2,94.6Z"/>
  <path class="cls-1" d="M376.1,94.2h222.7s-23,20.4-23,20.4l-18.3,16.5c-1.5,1.3-4.1,4.4-5.8,5.1-.9.4-4.6,0-5.8-.1h-18.9c0,0-125.9.2-125.9.2l-25.1-42Z"/>
  <path class="cls-1" d="M299.2,0c1.6,1.5,2.8,4.1,4,6.1l8.3,14.4,21.6,36.3,62.1,103.6,35.2,58.4-28,37-103.3-172.2-103,173.1-27.5-37.2c1.2-3.1,3.1-5.9,4.8-8.7l7.8-13.2,29.9-49.8L299.2,0Z"/>
  <path class="cls-1" d="M452.9,592.5l.2.5c.4,1.7.2,3.7.2,5.5v11.2s-.1,40.6-.1,40.6v14.4c0,1.5.3,4.2,0,5.6-.2.9-1.8,2.8-2.3,3.7l-7.6,12-50.9,79.5-57.1,90.2-36,57.8-152.7-239.7c-.5-.9-.8-1.7-1-2.7-.3-2.6,0-5.6,0-8.3v-16.5s0-52.7,0-52.7l153.6,239.9,153.7-241.1Z"/>
  <path class="cls-1" d="M0,179.6h116.4c0-.1,183.9,244.3,183.9,244.3l180.4-243.8h117s.3,553.3.3,553.3h-127.5s-.3-191.8-.3-191.8v-140.4c-.1,0-170.9,235-170.9,235-2.1-1.8-3.9-4.7-5.5-6.9l-9.5-13-55.4-76.5-64.5-89-35.3-47.6-.4,330.1H.4c0,.1-.4-553.7-.4-553.7Z"/>
  <path class="cls-2" d="M500.4,221.8h54.4c0,.1-.1,470.9-.1,470.9h-43.1s0-416.3,0-416.3l-211.8,288.4L97.1,293.1l-10.9-14.7c-.7,2.9-.2,6.9-.2,9.9v21.5c.1,0,.2,84.6.2,84.6l-.2,152.4.2,145.6h-43s-.4-470.3-.4-470.3c4.2,0,52.1-.3,52.6,0,1.8,1.3,4.1,5.3,5.5,7.2l24,32.3,128,170.9,32.5,43.9c4.2,5.6,8.4,13,13.6,17.7l201.2-272.3Z"/>
</svg>